<?xml version="1.0" standalone="no"?>
<!DOCTYPE svg PUBLIC "-//W3C//DTD SVG 20010904//EN"
 "http://www.w3.org/TR/2001/REC-SVG-20010904/DTD/svg10.dtd">
<svg version="1.0" xmlns="http://www.w3.org/2000/svg"
 width="77.000000pt" height="82.000000pt" viewBox="0 0 77.000000 82.000000"
 preserveAspectRatio="xMidYMid meet">

<g transform="translate(0.000000,82.000000) scale(0.100000,-0.100000)"
fill="#000000" stroke="none">
<path d="M472 703 c-38 -43 -30 -63 17 -42 17 8 31 20 31 26 0 7 5 13 10 13 6
0 10 9 10 20 0 32 -31 24 -68 -17z"/>
<path d="M593 636 c-38 -44 -54 -73 -47 -90 9 -23 29 -20 48 9 9 14 14 25 11
25 -3 0 4 10 15 22 21 23 23 49 4 55 -5 2 -20 -8 -31 -21z"/>
<path d="M187 328 c-15 -5 -25 -14 -22 -18 3 -5 0 -12 -6 -16 -6 -3 -15 0 -20
7 -6 9 -9 10 -9 2 0 -6 5 -15 10 -18 6 -3 10 -15 10 -26 0 -23 -1 -23 39 -3
17 9 28 20 25 26 -5 7 0 9 14 6 19 -5 22 -2 22 23 0 32 -13 35 -63 17z"/>
<path d="M509 273 c-13 -16 -12 -17 4 -4 9 7 17 15 17 17 0 8 -8 3 -21 -13z"/>
<path d="M290 236 c0 -8 -7 -16 -15 -20 -8 -3 -15 -12 -15 -21 0 -8 -7 -15
-16 -15 -24 0 -11 -25 15 -28 14 -2 30 6 44 21 27 30 31 45 16 63 -15 18 -29
18 -29 0z"/>
<path d="M410 219 c0 -5 5 -7 10 -4 6 3 10 8 10 11 0 2 -4 4 -10 4 -5 0 -10
-5 -10 -11z"/>
<path d="M567 208 c-55 -28 -58 -55 -11 -95 45 -38 161 -96 175 -88 5 4 9 29
9 56 0 47 -2 51 -32 64 -18 8 -49 29 -69 48 l-37 34 -35 -19z"/>
</g>
</svg>
